{"title":"Kick-Ass 2 2013 Cam XviD Feel-Free","uid":8830038,"size":1064396895,"categoryP":"video","categoryS":"movies","magnet":"?xt=urn:btih:710c87e15a95d163030e5c8a4cd7b5d19b175741&amp;dn=Kick-Ass+2+2013+Cam+XviD+Feel-Free&amp;tr=udp%3A%2F%2Ftracker.openbittorrent.com%3A80&amp;tr=udp%3A%2F%2Fopen.demonii.com%3A1337&amp;tr=udp%3A%2F%2Ftracker.coppersurfer.tk%3A6969&amp;tr=udp%3A%2F%2Fexodus.desync.com%3A6969","seeders":3,"leechers":0,"uploader":"SaM","files":8,"time":1376946093,"description":"Genre: Action | Comedy | Crime\nLanguage:English\nIMDb:http://www.imdb.com/title/tt1650554/\nSource:Kick.Ass.2.2013.iTALiAN/Kick-ass 2 English Audio ONLY Thanks\nSample:Never\nEncoder:Tony\n\nFormat : AVI\nFormat/Info : Audio Video Interleave\nFile size : 1 014 MiB\nDuration : 1h 40mn\nOverall bit rate : 1 413 Kbps\n\nVideo\nID : 0\nFormat : MPEG-4 Visual\nFormat profile : Simple@L5\nFormat settings, BVOP : No\nFormat settings, QPel : No\nFormat settings, GMC : No warppoints\nFormat settings, Matrix : Default (H.263)\nCodec ID : XVID\nCodec ID/Hint : XviD\nDuration : 1h 40mn\nBit rate : 1 275 Kbps\nWidth : 640 pixels\nHeight : 320 pixels\nDisplay aspect ratio : 2.000\nFrame rate : 24.000 fps\nColor space : YUV\nChroma subsampling : 4:2:0\nBit depth : 8 bits\nScan type : Progressive\nCompression mode : Lossy\nBits/(Pixel*Frame) : 0.259\nStream size : 915 MiB (90%)\nWriting library : XviD 64\n\nAudio\nID : 1\nFormat : MPEG Audio\nFormat version : Version 1\nFormat profile : Layer 3\nCodec ID : 55\nCodec ID/Hint : MP3\nDuration : 1h 40mn\nBit rate mode : Constant\nBit rate : 128 Kbps\nChannel(s) : 2 channels\nSampling rate : 44.1 KHz\nCompression mode : Lossy\nStream size : 91.9 MiB (9%)\nAlignment : Split accross interleaves\nInterleave, duration : 42 ms (1.00 video frame)\nInterleave, preload duration : 500 ms\n &lt;a href=&quot;\nhttp://img694.imageshack.us/img694/9376/9cap.png&quot; rel=&quot;nofollow&quot; target=&quot;_NEW&quot;&gt;\nhttp://img694.imageshack.us/img694/9376/9cap.png&lt;/a&gt;\n &lt;a href=&quot;\nhttp://img189.imageshack.us/img189/6913/fc5m.png&quot; rel=&quot;nofollow&quot; target=&quot;_NEW&quot;&gt;\nhttp://img189.imageshack.us/img189/6913/fc5m.png&lt;/a&gt;\n &lt;a href=&quot;\nhttp://img542.imageshack.us/img542/8233/c14q.png&quot; rel=&quot;nofollow&quot; target=&quot;_NEW&quot;&gt;\nhttp://img542.imageshack.us/img542/8233/c14q.png&lt;/a&gt;\n &lt;a href=&quot;\nhttp://img35.imageshack.us/img35/7048/we8q.png&quot; rel=&quot;nofollow&quot; target=&quot;_NEW&quot;&gt;\nhttp://img35.imageshack.us/img35/7048/we8q.png&lt;/a&gt;\n\nGreets:\nCRYS,INSPiRAL,IMAGINE,LKRG,ADTRG,FXG,3Li,FLAWL3SS,CrEwSaDe,TA,iLLUSiON,EMBER,HOPE,GooN,BBnRG,NOGRP,ETRG,BHRG,iLLUMiNATi,MiSTERE.ViSiON,DTRG SAFCuk009,LU,TheFalcon007,MYSTiC,PrisM,Noir,WBZ,LAP,Rx,Kingdom,SAFCuk009+Fabreezy,HDLiTE,TWiZTED,ETRG.ELEKTRI4KA,MAGNAT,CM8\nAnd to all the other p2p grps past and present\n\n\n\n\nMake sure its a real Feel-Free release @ http://extratorrent.com\nThanks to all who promotes release Feel-Free !!!","torrent":{"xt":"urn:btih:710c87e15a95d163030e5c8a4cd7b5d19b175741","amp;dn":"Kick-Ass+2+2013+Cam+XviD+Feel-Free","amp;tr":["udp%3A%2F%2Ftracker.openbittorrent.com%3A80","udp%3A%2F%2Fopen.demonii.com%3A1337","udp%3A%2F%2Ftracker.coppersurfer.tk%3A6969","udp%3A%2F%2Fexodus.desync.com%3A6969"],"infoHash":"710c87e15a95d163030e5c8a4cd7b5d19b175741","infoHashBuffer":{"type":"Buffer","data":[113,12,135,225,90,149,209,99,3,14,92,138,76,215,181,209,155,23,87,65]},"announce":[],"urlList":[]}}